<?xml version="1.0" encoding="UTF-8" standalone="no"?>
<!DOCTYPE svg PUBLIC "-//W3C//DTD SVG 1.1//EN"
 "http://www.w3.org/Graphics/SVG/1.1/DTD/svg11.dtd">
<!-- Generated by graphviz version 2.43.0 (0)
 -->
<!-- Title: classes_refactoring Pages: 1 -->
<svg width="3340pt" height="546pt"
 viewBox="0.00 0.00 3339.50 546.00" xmlns="http://www.w3.org/2000/svg" xmlns:xlink="http://www.w3.org/1999/xlink">
<g id="graph0" class="graph" transform="scale(1 1) rotate(0) translate(4 542)">
<title>classes_refactoring</title>
<polygon fill="white" stroke="transparent" points="-4,4 -4,-542 3335.5,-542 3335.5,4 -4,4"/>
<!-- refactoring.extract_method_refactoring.ExtractMethodArguments -->
<g id="node1" class="node">
<title>refactoring.extract_method_refactoring.ExtractMethodArguments</title>
<polygon fill="none" stroke="black" points="0,-0.5 0,-99.5 159,-99.5 159,-0.5 0,-0.5"/>
<text text-anchor="start" x="8" y="-84.3" font-family="Times,serif" font-size="14.00">ExtractMethodArguments</text>
<polyline fill="none" stroke="black" points="0,-76.5 159,-76.5 "/>
<text text-anchor="start" x="37" y="-61.3" font-family="Times,serif" font-size="14.00">end_line : int</text>
<text text-anchor="start" x="37" y="-46.3" font-family="Times,serif" font-size="14.00">new_name : str</text>
<text text-anchor="start" x="37" y="-31.3" font-family="Times,serif" font-size="14.00">start_line : int</text>
<polyline fill="none" stroke="black" points="0,-23.5 159,-23.5 "/>
<text text-anchor="start" x="77.5" y="-8.3" font-family="Times,serif" font-size="14.00"> </text>
</g>
<!-- refactoring.extract_method_refactoring.ExtractMethodRefactoring -->
<g id="node2" class="node">
<title>refactoring.extract_method_refactoring.ExtractMethodRefactoring</title>
<polygon fill="none" stroke="black" points="177,-14.6 177,-85.4 810,-85.4 810,-14.6 177,-14.6"/>
<text text-anchor="start" x="420.5" y="-70.2" font-family="Times,serif" font-size="14.00">ExtractMethodRefactoring</text>
<polyline fill="none" stroke="black" points="177,-62.4 810,-62.4 "/>
<polyline fill="none" stroke="black" points="177,-37.6 810,-37.6 "/>
<text text-anchor="start" x="185" y="-22.4" font-family="Times,serif" font-size="14.00">execute_rope_refactoring(project: Project, filepath: str, refactoring_arguments: ExtractMethodArguments): None</text>
</g>
<!-- refactoring.rope_refactoring.RopeRefactoring -->
<g id="node13" class="node">
<title>refactoring.rope_refactoring.RopeRefactoring</title>
<polygon fill="none" stroke="black" points="816.5,-167.5 816.5,-236.5 1462.5,-236.5 1462.5,-167.5 816.5,-167.5"/>
<text text-anchor="start" x="1093" y="-221.3" font-family="Times,serif" font-size="14.00">RopeRefactoring</text>
<polyline fill="none" stroke="black" points="816.5,-213.5 1462.5,-213.5 "/>
<text text-anchor="start" x="1028.5" y="-198.3" font-family="Times,serif" font-size="14.00">RopeRefactoringArguments : NoneType</text>
<polyline fill="none" stroke="black" points="816.5,-190.5 1462.5,-190.5 "/>
<text text-anchor="start" x="824.5" y="-176.3" font-family="Times,serif" font-style="italic" font-size="14.00">execute_rope_refactoring</text>
<text text-anchor="start" x="964.5" y="-176.3" font-family="Times,serif" font-size="14.00">(project: Project, filepath: str, refactoring_arguments: RopeRefactoringArguments): None</text>
</g>
<!-- refactoring.extract_method_refactoring.ExtractMethodRefactoring&#45;&gt;refactoring.rope_refactoring.RopeRefactoring -->
<g id="edge1" class="edge">
<title>refactoring.extract_method_refactoring.ExtractMethodRefactoring&#45;&gt;refactoring.rope_refactoring.RopeRefactoring</title>
<path fill="none" stroke="black" d="M641.71,-85.41C744.46,-109.27 880.99,-140.97 985.07,-165.14"/>
<polygon fill="none" stroke="black" points="984.51,-168.6 995.04,-167.46 986.09,-161.79 984.51,-168.6"/>
</g>
<!-- refactoring.extract_method_refactoring.ExtractMethodTool -->
<g id="node3" class="node">
<title>refactoring.extract_method_refactoring.ExtractMethodTool</title>
<polygon fill="none" stroke="black" points="2047,-7.1 2047,-92.9 2330,-92.9 2330,-7.1 2047,-7.1"/>
<text text-anchor="start" x="2134.5" y="-77.7" font-family="Times,serif" font-size="14.00">ExtractMethodTool</text>
<polyline fill="none" stroke="black" points="2047,-69.9 2330,-69.9 "/>
<polyline fill="none" stroke="black" points="2047,-45.1 2330,-45.1 "/>
<text text-anchor="start" x="2055" y="-29.9" font-family="Times,serif" font-size="14.00">call(arguments: dict): ExtractMethodRefactoring</text>
<text text-anchor="start" x="2055" y="-14.9" font-family="Times,serif" font-size="14.00">get_description(): dict</text>
</g>
<!-- refactoring.refactoring_tool.RefactoringTool -->
<g id="node9" class="node">
<title>refactoring.refactoring_tool.RefactoringTool</title>
<polygon fill="none" stroke="black" points="2371.5,-160.1 2371.5,-243.9 2601.5,-243.9 2601.5,-160.1 2371.5,-160.1"/>
<text text-anchor="start" x="2441.5" y="-228.7" font-family="Times,serif" font-size="14.00">RefactoringTool</text>
<polyline fill="none" stroke="black" points="2371.5,-220.9 2601.5,-220.9 "/>
<polyline fill="none" stroke="black" points="2371.5,-196.1 2601.5,-196.1 "/>
<text text-anchor="start" x="2379.5" y="-181.9" font-family="Times,serif" font-style="italic" font-size="14.00">call</text>
<text text-anchor="start" x="2400.5" y="-181.9" font-family="Times,serif" font-size="14.00">(filepath: str, arguments: dict): Self</text>
<text text-anchor="start" x="2379.5" y="-167.9" font-family="Times,serif" font-style="italic" font-size="14.00">get_description</text>
<text text-anchor="start" x="2464.5" y="-167.9" font-family="Times,serif" font-size="14.00">(): dict</text>
</g>
<!-- refactoring.extract_method_refactoring.ExtractMethodTool&#45;&gt;refactoring.refactoring_tool.RefactoringTool -->
<g id="edge2" class="edge">
<title>refactoring.extract_method_refactoring.ExtractMethodTool&#45;&gt;refactoring.refactoring_tool.RefactoringTool</title>
<path fill="none" stroke="black" d="M2271.91,-92.98C2310.48,-112.4 2356.39,-135.51 2395.82,-155.36"/>
<polygon fill="none" stroke="black" points="2394.67,-158.69 2405.17,-160.06 2397.81,-152.44 2394.67,-158.69"/>
</g>
<!-- refactoring.multi_rename_refactoring.MultiRenameRefactoring -->
<g id="node4" class="node">
<title>refactoring.multi_rename_refactoring.MultiRenameRefactoring</title>
<polygon fill="none" stroke="black" points="828.5,-14.6 828.5,-85.4 1450.5,-85.4 1450.5,-14.6 828.5,-14.6"/>
<text text-anchor="start" x="1069.5" y="-70.2" font-family="Times,serif" font-size="14.00">MultiRenameRefactoring</text>
<polyline fill="none" stroke="black" points="828.5,-62.4 1450.5,-62.4 "/>
<polyline fill="none" stroke="black" points="828.5,-37.6 1450.5,-37.6 "/>
<text text-anchor="start" x="836.5" y="-22.4" font-family="Times,serif" font-size="14.00">execute_rope_refactoring(project: Project, filepath: str, refactoring_arguments: list[RenameArguments]): None</text>
</g>
<!-- refactoring.multi_rename_refactoring.MultiRenameRefactoring&#45;&gt;refactoring.rope_refactoring.RopeRefactoring -->
<g id="edge3" class="edge">
<title>refactoring.multi_rename_refactoring.MultiRenameRefactoring&#45;&gt;refactoring.rope_refactoring.RopeRefactoring</title>
<path fill="none" stroke="black" d="M1139.5,-85.41C1139.5,-106.71 1139.5,-134.27 1139.5,-157.13"/>
<polygon fill="none" stroke="black" points="1136,-157.26 1139.5,-167.26 1143,-157.26 1136,-157.26"/>
</g>
<!-- refactoring.multi_rename_refactoring.MultiRenameTool -->
<g id="node5" class="node">
<title>refactoring.multi_rename_refactoring.MultiRenameTool</title>
<polygon fill="none" stroke="black" points="2348,-7.1 2348,-92.9 2625,-92.9 2625,-7.1 2348,-7.1"/>
<text text-anchor="start" x="2435.5" y="-77.7" font-family="Times,serif" font-size="14.00">MultiRenameTool</text>
<polyline fill="none" stroke="black" points="2348,-69.9 2625,-69.9 "/>
<polyline fill="none" stroke="black" points="2348,-45.1 2625,-45.1 "/>
<text text-anchor="start" x="2356" y="-29.9" font-family="Times,serif" font-size="14.00">call(arguments: dict): MultiRenameRefactoring</text>
<text text-anchor="start" x="2356" y="-14.9" font-family="Times,serif" font-size="14.00">get_description(): dict</text>
</g>
<!-- refactoring.multi_rename_refactoring.MultiRenameTool&#45;&gt;refactoring.refactoring_tool.RefactoringTool -->
<g id="edge4" class="edge">
<title>refactoring.multi_rename_refactoring.MultiRenameTool&#45;&gt;refactoring.refactoring_tool.RefactoringTool</title>
<path fill="none" stroke="black" d="M2486.5,-93.18C2486.5,-110.8 2486.5,-131.43 2486.5,-149.9"/>
<polygon fill="none" stroke="black" points="2483,-149.91 2486.5,-159.91 2490,-149.91 2483,-149.91"/>
</g>
<!-- refactoring.refactoring.Refactoring -->
<g id="node6" class="node">
<title>refactoring.refactoring.Refactoring</title>
<polygon fill="none" stroke="black" points="1212.5,-318.5 1212.5,-537.5 1538.5,-537.5 1538.5,-318.5 1212.5,-318.5"/>
<text text-anchor="start" x="1343.5" y="-522.3" font-family="Times,serif" font-size="14.00">Refactoring</text>
<polyline fill="none" stroke="black" points="1212.5,-514.5 1538.5,-514.5 "/>
<text text-anchor="start" x="1297.5" y="-499.3" font-family="Times,serif" font-size="14.00">commit_hash : Optional[str]</text>
<text text-anchor="start" x="1297.5" y="-484.3" font-family="Times,serif" font-size="14.00">evaluation : NoneType</text>
<text text-anchor="start" x="1297.5" y="-469.3" font-family="Times,serif" font-size="14.00">filepath : str</text>
<text text-anchor="start" x="1297.5" y="-454.3" font-family="Times,serif" font-size="14.00">new_code : str</text>
<text text-anchor="start" x="1297.5" y="-439.3" font-family="Times,serif" font-size="14.00">old_code : str</text>
<polyline fill="none" stroke="black" points="1212.5,-431.5 1538.5,-431.5 "/>
<text text-anchor="start" x="1220.5" y="-416.3" font-family="Times,serif" font-size="14.00">execute(): None</text>
<text text-anchor="start" x="1220.5" y="-401.3" font-family="Times,serif" font-size="14.00">from_dict(data: dict): &#39;Refactoring&#39;</text>
<text text-anchor="start" x="1220.5" y="-386.3" font-family="Times,serif" font-size="14.00">get_diff(): str</text>
<text text-anchor="start" x="1220.5" y="-371.3" font-family="Times,serif" font-size="14.00">revert(): None</text>
<text text-anchor="start" x="1220.5" y="-356.3" font-family="Times,serif" font-size="14.00">set_evaluation(evaluation: RefactoringEvaluation): None</text>
<text text-anchor="start" x="1220.5" y="-341.3" font-family="Times,serif" font-size="14.00">to_dict(): dict</text>
<text text-anchor="start" x="1220.5" y="-326.3" font-family="Times,serif" font-size="14.00">write_file(filepath: str, content: str): None</text>
</g>
<!-- refactoring.refactoring_evaluation.RefactoringEvaluation -->
<g id="node7" class="node">
<title>refactoring.refactoring_evaluation.RefactoringEvaluation</title>
<polygon fill="none" stroke="black" points="1480.5,-137.5 1480.5,-266.5 1744.5,-266.5 1744.5,-137.5 1480.5,-137.5"/>
<text text-anchor="start" x="1551" y="-251.3" font-family="Times,serif" font-size="14.00">RefactoringEvaluation</text>
<polyline fill="none" stroke="black" points="1480.5,-243.5 1744.5,-243.5 "/>
<text text-anchor="start" x="1570" y="-228.3" font-family="Times,serif" font-size="14.00">correct : bool</text>
<text text-anchor="start" x="1570" y="-213.3" font-family="Times,serif" font-size="14.00">description : str</text>
<text text-anchor="start" x="1570" y="-198.3" font-family="Times,serif" font-size="14.00">grade : int</text>
<polyline fill="none" stroke="black" points="1480.5,-190.5 1744.5,-190.5 "/>
<text text-anchor="start" x="1488.5" y="-175.3" font-family="Times,serif" font-size="14.00">from_dict(data: dict): &#39;RefactoringEvaluation&#39;</text>
<text text-anchor="start" x="1488.5" y="-160.3" font-family="Times,serif" font-size="14.00">sorting_value(): int</text>
<text text-anchor="start" x="1488.5" y="-145.3" font-family="Times,serif" font-size="14.00">to_dict(): dict</text>
</g>
<!-- refactoring.refactoring_evaluation.RefactoringEvaluation&#45;&gt;refactoring.refactoring.Refactoring -->
<g id="edge8" class="edge">
<title>refactoring.refactoring_evaluation.RefactoringEvaluation&#45;&gt;refactoring.refactoring.Refactoring</title>
<path fill="none" stroke="black" d="M1545.22,-266.59C1530.79,-280.23 1515.1,-295.06 1499.28,-310.01"/>
<polygon fill="black" stroke="black" points="1499.21,-310.07 1497.6,-317.1 1490.49,-318.32 1492.1,-311.29 1499.21,-310.07"/>
<text text-anchor="middle" x="1551" y="-288.8" font-family="Times,serif" font-size="14.00" fill="green">evaluation</text>
</g>
<!-- refactoring.refactoring_storage.RefactoringStorage -->
<g id="node8" class="node">
<title>refactoring.refactoring_storage.RefactoringStorage</title>
<polygon fill="none" stroke="black" points="2908,-8 2908,-92 3191,-92 3191,-8 2908,-8"/>
<text text-anchor="start" x="2996.5" y="-76.8" font-family="Times,serif" font-size="14.00">RefactoringStorage</text>
<polyline fill="none" stroke="black" points="2908,-69 3191,-69 "/>
<text text-anchor="start" x="3016" y="-53.8" font-family="Times,serif" font-size="14.00">filepath : str</text>
<polyline fill="none" stroke="black" points="2908,-46 3191,-46 "/>
<text text-anchor="start" x="2916" y="-30.8" font-family="Times,serif" font-size="14.00">load_refactorings(): list[Refactoring]</text>
<text text-anchor="start" x="2916" y="-15.8" font-family="Times,serif" font-size="14.00">save_refactoring(refactoring: Refactoring): None</text>
</g>
<!-- refactoring.rename_shared.RenameArguments -->
<g id="node10" class="node">
<title>refactoring.rename_shared.RenameArguments</title>
<polygon fill="none" stroke="black" points="3209.5,-0.5 3209.5,-99.5 3331.5,-99.5 3331.5,-0.5 3209.5,-0.5"/>
<text text-anchor="start" x="3217.5" y="-84.3" font-family="Times,serif" font-size="14.00">RenameArguments</text>
<polyline fill="none" stroke="black" points="3209.5,-76.5 3331.5,-76.5 "/>
<text text-anchor="start" x="3223" y="-61.3" font-family="Times,serif" font-size="14.00">line_number : int</text>
<text text-anchor="start" x="3223" y="-46.3" font-family="Times,serif" font-size="14.00">new_name : str</text>
<text text-anchor="start" x="3223" y="-31.3" font-family="Times,serif" font-size="14.00">old_name : str</text>
<polyline fill="none" stroke="black" points="3209.5,-23.5 3331.5,-23.5 "/>
<text text-anchor="start" x="3268.5" y="-8.3" font-family="Times,serif" font-size="14.00"> </text>
</g>
<!-- refactoring.rename_refactoring.RenameRefactoring -->
<g id="node11" class="node">
<title>refactoring.rename_refactoring.RenameRefactoring</title>
<polygon fill="none" stroke="black" points="1468.5,-14.6 1468.5,-85.4 2028.5,-85.4 2028.5,-14.6 1468.5,-14.6"/>
<text text-anchor="start" x="1694" y="-70.2" font-family="Times,serif" font-size="14.00">RenameRefactoring</text>
<polyline fill="none" stroke="black" points="1468.5,-62.4 2028.5,-62.4 "/>
<polyline fill="none" stroke="black" points="1468.5,-37.6 2028.5,-37.6 "/>
<text text-anchor="start" x="1476.5" y="-22.4" font-family="Times,serif" font-size="14.00">execute_rope_refactoring(project: Project, filepath: str, refactoring_arguments: RenameArguments)</text>
</g>
<!-- refactoring.rename_refactoring.RenameRefactoring&#45;&gt;refactoring.rope_refactoring.RopeRefactoring -->
<g id="edge5" class="edge">
<title>refactoring.rename_refactoring.RenameRefactoring&#45;&gt;refactoring.rope_refactoring.RopeRefactoring</title>
<path fill="none" stroke="black" d="M1608.78,-85.41C1512.11,-109.22 1383.72,-140.85 1285.68,-165"/>
<polygon fill="none" stroke="black" points="1284.56,-161.67 1275.68,-167.46 1286.23,-168.46 1284.56,-161.67"/>
</g>
<!-- refactoring.rename_refactoring.RenameTool -->
<g id="node12" class="node">
<title>refactoring.rename_refactoring.RenameTool</title>
<polygon fill="none" stroke="black" points="2643.5,-7.1 2643.5,-92.9 2889.5,-92.9 2889.5,-7.1 2643.5,-7.1"/>
<text text-anchor="start" x="2731" y="-77.7" font-family="Times,serif" font-size="14.00">RenameTool</text>
<polyline fill="none" stroke="black" points="2643.5,-69.9 2889.5,-69.9 "/>
<polyline fill="none" stroke="black" points="2643.5,-45.1 2889.5,-45.1 "/>
<text text-anchor="start" x="2651.5" y="-29.9" font-family="Times,serif" font-size="14.00">call(arguments: dict): RenameRefactoring</text>
<text text-anchor="start" x="2651.5" y="-14.9" font-family="Times,serif" font-size="14.00">get_description(): dict</text>
</g>
<!-- refactoring.rename_refactoring.RenameTool&#45;&gt;refactoring.refactoring_tool.RefactoringTool -->
<g id="edge6" class="edge">
<title>refactoring.rename_refactoring.RenameTool&#45;&gt;refactoring.refactoring_tool.RefactoringTool</title>
<path fill="none" stroke="black" d="M2688.13,-92.98C2652.04,-112.32 2609.12,-135.31 2572.17,-155.1"/>
<polygon fill="none" stroke="black" points="2570.08,-152.26 2562.91,-160.06 2573.38,-158.43 2570.08,-152.26"/>
</g>
<!-- refactoring.rope_refactoring.RopeRefactoring&#45;&gt;refactoring.refactoring.Refactoring -->
<g id="edge7" class="edge">
<title>refactoring.rope_refactoring.RopeRefactoring&#45;&gt;refactoring.refactoring.Refactoring</title>
<path fill="none" stroke="black" d="M1174.83,-236.54C1196.17,-256.79 1224.75,-283.92 1253.65,-311.34"/>
<polygon fill="none" stroke="black" points="1251.33,-313.97 1260.99,-318.32 1256.15,-308.89 1251.33,-313.97"/>
</g>
</g>
</svg>
